# xmcd
#
# Track frame offsets:
#	150
#	16650
#	41807
#	75850
#	101280
#	115017
#	129217
#	143210
#	160605
#	181057
#	193400
#	207590
#	219602
#	230902
#	242497
#
# Disc length: 3501
#
# Revision: 1
# Processed by: cddbd v1.5.1PL0 Copyright (c) Steve Scherf et al.
# Submitted via: ExactAudioCopy v0.95a4
# Normalized: r0:TDELIM( - )
#
DISCID=c10dab0f
DTITLE=Various Artist - Rhythm and Soul n°13
DYEAR=2000
DGENRE=Soul
TTITLE0=Boys Town Gang - Can't Take My Eyes Off You
TTITLE1=Billy Paul - Only The Strong Survive
TTITLE2=Gap Band - Early In The Morning
TTITLE3=Cameo - Candy
TTITLE4=Kool and The Gang - Jungle Boogie
TTITLE5=The Jackson 5 - Doctor My Eyes
TTITLE6=Spinners - It's A Shame
TTITLE7=Barry White - I'm Gonna Love You Just A Little More Babe
TTITLE8=Arrested Development - Tennessee
TTITLE9=Smokey Robinson and The Miracles - Mickey's Monkey
TTITLE10=Stevie Wonder - Fingertips (part 2)
TTITLE11=The SUpremes - You Keep Me Hangin' On
TTITLE12=The Temptations - Ain't Too Proud To Beg
TTITLE13=The Platters - Only You (And Only Alone)
TTITLE14=Diana Ross and Lionel Richie - Endless Love
EXTD=
EXTT0=
EXTT1=
EXTT2=
EXTT3=
EXTT4=
EXTT5=
EXTT6=
EXTT7=
EXTT8=
EXTT9=
EXTT10=
EXTT11=
EXTT12=
EXTT13=
EXTT14=
PLAYORDER=
